<?xml version="1.0" encoding="UTF-8" standalone="no"?>
<svg width="184px" height="27px" viewBox="0 0 184 27" version="1.1" xmlns="http://www.w3.org/2000/svg" xmlns:xlink="http://www.w3.org/1999/xlink">
    <!-- Generator: Sketch 43.2 (39069) - http://www.bohemiancoding.com/sketch -->
    <title>marca-geekhunter-inverse</title>
    <desc>Created with Sketch.</desc>
    <defs></defs>
    <g id="Home" stroke="none" stroke-width="1" fill="none" fill-rule="evenodd">
        <g id="[L]-Home" transform="translate(-70.000000, -50.000000)" fill="#FFFFFF">
            <g id="hero">
                <g id="header">
                    <g id="marca-geekhunter-inverse" transform="translate(70.037823, 49.999961)">
                        <path d="M65.0886397,18.8190632 C64.284548,18.8190632 63.5461865,18.6583433 62.8735328,18.3368987 C62.2008792,18.0154542 61.6248799,17.5753879 61.1455175,17.0166866 C60.6661552,16.4579853 60.2950415,15.8112792 60.0321653,15.0765488 C59.7692892,14.3418184 59.6378531,13.561179 59.6378531,12.7346073 C59.6378531,11.8621149 59.7770208,11.0508622 60.0553602,10.3008249 C60.3336996,9.55078758 60.7202764,8.89260145 61.215102,8.32624675 C61.7099277,7.75989204 62.3013901,7.31599907 62.989507,6.99455451 C63.6776239,6.67310995 64.4391801,6.51239008 65.2741984,6.51239008 C66.2329231,6.51239008 67.0679289,6.72285657 67.7792408,7.14379588 C68.4905527,7.56473519 69.0704178,8.12725473 69.5188535,8.83137139 L69.5188535,6.71903198 L72.2326494,6.71903198 L72.2326494,18.1761773 C72.2326494,19.0639765 72.0664214,19.8599226 71.7339604,20.5640392 C71.4014994,21.2681559 70.9337416,21.8651154 70.3306728,22.3549357 C69.727604,22.844756 69.0163028,23.219769 68.1967478,23.479986 C67.3771928,23.740203 66.4803348,23.8703096 65.5061468,23.8703096 C64.1608395,23.8703096 63.0359012,23.6521898 62.1312981,23.2159436 C61.2266949,22.7796974 60.4496757,22.1636046 59.800217,21.3676466 L61.4934401,19.7374716 C61.9573391,20.3038263 62.54107,20.7477193 63.2446502,21.0691639 C63.9482305,21.3906084 64.7020551,21.5513283 65.5061468,21.5513283 C65.9855091,21.5513283 66.4455355,21.486275 66.8862396,21.3561665 C67.3269437,21.226058 67.7135204,21.0232448 68.0459814,20.7477209 C68.3784424,20.472197 68.6413146,20.1201439 68.8346058,19.6915512 C69.0278971,19.2629584 69.1245413,18.7578389 69.1245413,18.1761773 L69.1245413,16.6608033 C68.7224955,17.3496131 68.1580934,17.8815193 67.4313182,18.256538 C66.7045431,18.6315567 65.923658,18.8190632 65.0886397,18.8190632 L65.0886397,18.8190632 Z M66.1556022,16.3623206 C66.4957949,16.3623206 66.8205193,16.3087473 67.1297854,16.2015991 C67.4390514,16.0944509 67.7212524,15.9490377 67.9763969,15.7653551 C68.2315414,15.5816725 68.4596217,15.3673793 68.6606446,15.1224692 C68.8616675,14.8775591 69.0162982,14.6173459 69.1245413,14.341822 L69.1245413,11.4717957 C68.8462019,10.767679 68.4132359,10.2013328 67.8256305,9.77274004 C67.238025,9.34414729 66.6195022,9.12985413 65.9700435,9.12985413 C65.4906812,9.12985413 65.0538495,9.23317405 64.6595353,9.43981698 C64.2652211,9.64645991 63.9288993,9.92197969 63.6505599,10.2663846 C63.3722204,10.6107895 63.1596032,11.0049358 63.0127019,11.4488354 C62.8658005,11.8927351 62.7923509,12.3519347 62.7923509,12.8264481 C62.7923509,13.3162684 62.8773978,13.775468 63.0474941,14.2040608 C63.2175904,14.6326535 63.4534022,15.0076665 63.7549366,15.3291111 C64.056471,15.6505557 64.4121216,15.9031155 64.8218991,16.0867981 C65.2316766,16.2704807 65.6762399,16.3623206 66.1556022,16.3623206 L66.1556022,16.3623206 Z M80.6755699,18.9797847 C79.7013819,18.9797847 78.819987,18.8152381 78.0313586,18.4861401 C77.2427302,18.1570421 76.5700866,17.7093225 76.0134078,17.1429678 C75.4567289,16.5766131 75.0276287,15.9184269 74.7260944,15.1683896 C74.42456,14.4183523 74.273795,13.6300596 74.273795,12.8034879 C74.273795,11.9463024 74.4206942,11.1388764 74.7144969,10.3811856 C75.0082997,9.62349488 75.4335341,8.95765542 75.9902129,8.38364727 C76.5468918,7.80963913 77.2234011,7.35426617 78.0197612,7.01751472 C78.8161212,6.68076328 79.7091135,6.51239008 80.6987648,6.51239008 C81.6884161,6.51239008 82.5736768,6.68076328 83.3545736,7.01751472 C84.1354703,7.35426617 84.8003823,7.80581247 85.3493295,8.37216717 C85.8982767,8.93852187 86.3157796,9.59670801 86.6018507,10.3467453 C86.8879218,11.0967826 87.0309552,11.877422 87.0309552,12.6886868 C87.0309552,12.8876763 87.0270894,13.0790095 87.0193578,13.2626921 C87.0116261,13.4463747 86.9922973,13.5994413 86.9613707,13.7218963 L77.5674618,13.7218963 C77.6138517,14.1964097 77.7298248,14.6173427 77.9153844,14.9847079 C78.100944,15.3520731 78.3406216,15.6658596 78.6344243,15.9260766 C78.9282271,16.1862936 79.2606831,16.3852801 79.6318023,16.5230421 C80.0029215,16.660804 80.3894983,16.729684 80.7915441,16.729684 C81.4100762,16.729684 81.9938071,16.5804441 82.5427543,16.2819599 C83.0917015,15.9834756 83.4666809,15.5893293 83.6677039,15.099509 L86.3351101,15.8342357 C85.8866743,16.7526488 85.1715074,17.5065015 84.1895877,18.0958165 C83.207668,18.6851316 82.0363405,18.9797847 80.6755699,18.9797847 L80.6755699,18.9797847 Z M83.8300677,11.724358 C83.7527512,10.8212518 83.4164295,10.0980124 82.8210923,9.55461804 C82.2257552,9.01122366 81.5028567,8.73953055 80.6523751,8.73953055 C80.234866,8.73953055 79.8444235,8.81223715 79.4810359,8.95765255 C79.1176483,9.10306795 78.7967896,9.30588112 78.5184501,9.56609814 C78.2401107,9.82631517 78.0120304,10.1401016 77.8342025,10.5074668 C77.6563745,10.874832 77.5519988,11.2804583 77.5210722,11.724358 L83.8300677,11.724358 Z M94.5924719,18.9797847 C93.6182839,18.9797847 92.7368889,18.8152381 91.9482605,18.4861401 C91.1596322,18.1570421 90.4869886,17.7093225 89.9303098,17.1429678 C89.3736309,16.5766131 88.9445307,15.9184269 88.6429963,15.1683896 C88.3414619,14.4183523 88.190697,13.6300596 88.190697,12.8034879 C88.190697,11.9463024 88.3375962,11.1388764 88.6313989,10.3811856 C88.9252016,9.62349488 89.3504361,8.95765542 89.9071149,8.38364727 C90.4637938,7.80963913 91.1403031,7.35426617 91.9366631,7.01751472 C92.7330232,6.68076328 93.6260154,6.51239008 94.6156668,6.51239008 C95.6053181,6.51239008 96.4905788,6.68076328 97.2714756,7.01751472 C98.0523723,7.35426617 98.7172843,7.80581247 99.2662315,8.37216717 C99.8151787,8.93852187 100.232682,9.59670801 100.518753,10.3467453 C100.804824,11.0967826 100.947857,11.877422 100.947857,12.6886868 C100.947857,12.8876763 100.943991,13.0790095 100.93626,13.2626921 C100.928528,13.4463747 100.909199,13.5994413 100.878273,13.7218963 L91.4843638,13.7218963 C91.5307537,14.1964097 91.6467267,14.6173427 91.8322864,14.9847079 C92.017846,15.3520731 92.2575236,15.6658596 92.5513263,15.9260766 C92.845129,16.1862936 93.177585,16.3852801 93.5487043,16.5230421 C93.9198235,16.660804 94.3064003,16.729684 94.7084461,16.729684 C95.3269782,16.729684 95.9107091,16.5804441 96.4596563,16.2819599 C97.0086035,15.9834756 97.3835829,15.5893293 97.5846058,15.099509 L100.252012,15.8342357 C99.8035763,16.7526488 99.0884093,17.5065015 98.1064897,18.0958165 C97.12457,18.6851316 95.9532425,18.9797847 94.5924719,18.9797847 L94.5924719,18.9797847 Z M97.7469697,11.724358 C97.6696532,10.8212518 97.3333314,10.0980124 96.7379943,9.55461804 C96.1426572,9.01122366 95.4197587,8.73953055 94.5692771,8.73953055 C94.1517679,8.73953055 93.7613254,8.81223715 93.3979378,8.95765255 C93.0345502,9.10306795 92.7136915,9.30588112 92.4353521,9.56609814 C92.1570127,9.82631517 91.9289324,10.1401016 91.7511044,10.5074668 C91.5732765,10.874832 91.4689007,11.2804583 91.4379741,11.724358 L97.7469697,11.724358 Z M111.153585,18.7501825 L107.62797,13.5382146 L105.957942,15.1683896 L105.957942,18.7501825 L102.849834,18.7501825 L102.849834,1.98922851 L105.957942,1.98922851 L105.957942,12.160602 L110.828858,6.74199219 L114.145719,6.74199219 L109.599531,11.839159 L114.470447,18.7501825 L111.153585,18.7501825 Z M126.230229,18.7501825 L124.65298,18.7501825 L124.65298,12.0687611 C124.65298,10.7064485 124.417168,9.68855597 123.945538,9.01505308 C123.473907,8.34155019 122.781935,8.00480379 121.8696,8.00480379 C121.421164,8.00480379 120.976601,8.09281706 120.535897,8.26884622 C120.095193,8.44487538 119.681555,8.68595519 119.294973,8.99209287 C118.90839,9.29823054 118.572069,9.65793692 118.285998,10.0712228 C117.999926,10.4845086 117.787309,10.9360549 117.64814,11.4258752 L117.64814,18.7501825 L116.070891,18.7501825 L116.070891,1.98922851 L117.64814,1.98922851 L117.64814,9.49721751 C118.142965,8.59411136 118.815609,7.88235194 119.66609,7.36191789 C120.516572,6.84148383 121.428893,6.58127071 122.403081,6.58127071 C123.09893,6.58127071 123.690392,6.70755061 124.177486,6.96011419 C124.66458,7.21267778 125.058888,7.56473082 125.360423,8.0162839 C125.661957,8.46783697 125.882306,9.0112232 126.021476,9.64645888 C126.160645,10.2816946 126.230229,10.981974 126.230229,11.7473182 L126.230229,18.7501825 Z M133.23507,18.9797847 C131.967079,18.9797847 131.008369,18.5473717 130.35891,17.6825327 C129.709451,16.8176938 129.384727,15.5281082 129.384727,13.8137372 L129.384727,6.78791261 L130.961976,6.78791261 L130.961976,13.5382146 C130.961976,16.2475331 131.897491,17.602172 133.768551,17.602172 C134.23245,17.602172 134.688611,17.5256387 135.137046,17.3725699 C135.585482,17.219501 135.999119,16.9975546 136.37797,16.7067238 C136.756821,16.415893 137.097009,16.0714932 137.398543,15.6735143 C137.700077,15.2755353 137.943621,14.823989 138.12918,14.3188618 L138.12918,6.78791261 L139.706429,6.78791261 L139.706429,16.729684 C139.706429,17.1582767 139.899718,17.3725699 140.2863,17.3725699 L140.2863,18.7501825 C139.977034,18.7961032 139.760551,18.8190632 139.636845,18.8190632 C139.281189,18.8190632 138.975793,18.7119166 138.720649,18.4976202 C138.465504,18.2833238 138.337934,18.0154574 138.337934,17.6940128 L138.337934,16.0408776 C137.796718,16.9745976 137.077685,17.697837 136.180814,18.2106176 C135.283942,18.7233982 134.302038,18.9797847 133.23507,18.9797847 L133.23507,18.9797847 Z M153.437772,18.7501825 L151.860524,18.7501825 L151.860524,12.0687611 C151.860524,10.6452209 151.651772,9.61202178 151.234263,8.96913266 C150.816754,8.32624353 150.167305,8.00480379 149.285897,8.00480379 C148.821998,8.00480379 148.358106,8.08899039 147.894206,8.25736611 C147.430307,8.42574184 146.997341,8.66299498 146.595296,8.96913266 C146.19325,9.27527033 145.841465,9.63880337 145.539931,10.0597427 C145.238396,10.480682 145.010316,10.9360549 144.855683,11.4258752 L144.855683,18.7501825 L143.278434,18.7501825 L143.278434,6.78791261 L144.716514,6.78791261 L144.716514,9.49721751 C144.963927,9.06862476 145.269322,8.67447841 145.63271,8.31476664 C145.996098,7.95505487 146.402003,7.64509512 146.850439,7.3848781 C147.298875,7.12466107 147.774364,6.92567457 148.276921,6.78791261 C148.779479,6.65015066 149.301357,6.58127071 149.842573,6.58127071 C150.522958,6.58127071 151.091226,6.70372395 151.547393,6.94863409 C152.003561,7.19354423 152.370809,7.53794395 152.649148,7.98184358 C152.927487,8.42574321 153.128507,8.96912944 153.252214,9.61201856 C153.37592,10.2549077 153.437772,10.9666671 153.437772,11.7473182 L153.437772,18.7501825 Z M162.460564,18.1761773 C162.367784,18.2220979 162.232482,18.2833245 162.054654,18.359859 C161.876826,18.4363934 161.671941,18.5129266 161.439991,18.5894611 C161.208042,18.6659955 160.945169,18.7348754 160.651367,18.796103 C160.357564,18.8573305 160.048303,18.8879438 159.723573,18.8879438 C159.383381,18.8879438 159.058656,18.8420238 158.74939,18.7501825 C158.440124,18.6583412 158.16952,18.5167547 157.937571,18.3254186 C157.705621,18.1340826 157.520064,17.8930028 157.380895,17.602172 C157.241725,17.3113412 157.172141,16.9745948 157.172141,16.5919227 L157.172141,8.027764 L155.502113,8.027764 L155.502113,6.78791261 L157.172141,6.78791261 L157.172141,2.74691547 L158.74939,2.74691547 L158.74939,6.78791261 L161.53277,6.78791261 L161.53277,8.027764 L158.74939,8.027764 L158.74939,16.1556787 C158.780317,16.5995783 158.934947,16.9248447 159.213287,17.1314877 C159.491626,17.3381306 159.824082,17.4414505 160.210665,17.4414505 C160.6591,17.4414505 161.053409,17.3687439 161.393601,17.2233285 C161.733794,17.0779131 161.950277,16.9745932 162.043057,16.9133657 L162.460564,18.1761773 Z M169.604574,18.9797847 C168.723165,18.9797847 167.911354,18.8152381 167.169116,18.4861401 C166.426877,18.1570421 165.78516,17.7054958 165.243944,17.1314877 C164.702729,16.5574795 164.28136,15.8954667 163.979826,15.1454294 C163.678291,14.3953921 163.527526,13.5917928 163.527526,12.7346073 C163.527526,11.8927286 163.678291,11.1006093 163.979826,10.3582254 C164.28136,9.61584155 164.702729,8.96530875 165.243944,8.40660749 C165.78516,7.84790622 166.423011,7.40401325 167.157518,7.07491525 C167.892025,6.74581724 168.699971,6.58127071 169.581379,6.58127071 C170.462787,6.58127071 171.270732,6.74581724 172.005239,7.07491525 C172.739746,7.40401325 173.369866,7.85173289 173.895618,8.41808759 C174.421371,8.98444229 174.831142,9.6349751 175.124945,10.3697055 C175.418747,11.104436 175.565647,11.8850753 175.565647,12.711647 C175.565647,12.8341021 175.561781,12.9565554 175.554049,13.0790104 C175.546318,13.2014655 175.53472,13.2856521 175.519257,13.3315727 L165.197555,13.3315727 C165.243945,13.9744619 165.394709,14.5675947 165.649854,15.1109891 C165.904998,15.6543835 166.229723,16.1250631 166.624037,16.5230421 C167.018351,16.9210211 167.474512,17.2309808 167.992532,17.4529306 C168.510553,17.6748804 169.063358,17.7858537 169.650963,17.7858537 C170.053009,17.7858537 170.447317,17.7322804 170.8339,17.6251322 C171.220482,17.517984 171.576133,17.3725708 171.900862,17.1888882 C172.225592,17.0052056 172.515524,16.7794324 172.770669,16.511562 C173.025813,16.2436915 173.222967,15.9490384 173.362137,15.6275938 L174.730632,15.9949572 C174.545073,16.4388569 174.282201,16.8406565 173.942008,17.2003683 C173.601815,17.5600801 173.207507,17.8738665 172.759071,18.1417369 C172.310636,18.4096074 171.815817,18.6162472 171.274602,18.7616626 C170.733386,18.907078 170.176716,18.9797847 169.604574,18.9797847 L169.604574,18.9797847 Z M174.057982,12.1376418 C174.011592,11.4947527 173.860827,10.9092731 173.605683,10.3811856 C173.350538,9.85309814 173.025814,9.39772517 172.6315,9.01505308 C172.237186,8.63238098 171.777159,8.33390122 171.251407,8.11960485 C170.725655,7.90530847 170.168984,7.79816189 169.581379,7.79816189 C168.993773,7.79816189 168.437103,7.90530847 167.911351,8.11960485 C167.385598,8.33390122 166.925572,8.63238098 166.531258,9.01505308 C166.136944,9.39772517 165.819951,9.8569248 165.580269,10.3926657 C165.340588,10.9284067 165.197555,11.5100595 165.151165,12.1376418 L174.057982,12.1376418 Z M183.962177,8.16552527 C182.89521,8.19613904 181.967425,8.48696547 181.178797,9.03801329 C180.390169,9.58906111 179.833498,10.3467405 179.508769,11.3110742 L179.508769,18.7501825 L177.93152,18.7501825 L177.93152,6.78791261 L179.415989,6.78791261 L179.415989,9.65793899 C179.833499,8.81606037 180.382438,8.11578094 181.062823,7.55707968 C181.743208,6.99837842 182.477704,6.71903198 183.266332,6.71903198 L183.660645,6.71903198 C183.784351,6.71903198 183.884861,6.7266853 183.962177,6.74199219 L183.962177,8.16552527 Z" id="geekhunter"></path>
                        <g id="simbolo">
                            <path d="M47.3081823,14.0433244 C47.2805558,9.96311714 43.8660087,6.66882032 39.7104474,6.71397217 C35.6355377,6.75778288 32.3279319,10.0713028 32.3377348,14.0996524 C32.3475378,18.2008709 35.7295569,21.5528369 39.8445696,21.5394255 C43.9506706,21.5260141 47.3358088,18.1262139 47.3081823,14.0433244 M12.7226111,6.71376148 C8.6194151,6.68043022 5.185984,10.0117787 5.17003722,14.0421949 C5.15364747,18.0503902 8.61277061,21.4688444 12.6685692,21.4528454 C16.670326,21.4368464 20.0590175,18.1334961 20.1391944,14.1706313 C20.2202572,10.1611028 16.8244782,6.74709274 12.7226111,6.71376148 M24.1483207,8.12564944 C25.6043919,11.0583388 26.0613984,14.1160745 25.2402761,17.3307079 C23.7234536,23.2688337 18.2193868,27.069769 11.6374746,26.6969895 C6.00328246,26.3780822 0.933097458,21.643232 0.28678213,15.8517799 C-0.27017001,10.8593658 0.177821754,5.82998832 0.0563191756,0.81869929 C0.0414253112,0.194254298 0.877441438,0.00511195522 0.877441438,0.00511195522 L5.40517622,0 C5.40517622,0 6.31174223,0.233577031 6.2694123,0.898524437 C6.22237905,1.63307308 6.25843788,2.37352013 6.25843788,3.28384139 C7.98259866,2.51862102 9.52685723,1.87648079 11.2247578,1.66964322 C13.8829206,1.34601713 16.4007676,1.75654646 18.7539982,2.99442608 C19.4363723,3.35344263 19.8957305,3.29563821 20.5498847,2.97279858 C24.4313041,1.05620859 28.3566213,1.04598468 32.229418,2.97909021 C32.9670562,3.34715099 33.463649,3.26024775 34.147199,2.92364516 C42.9216449,-1.39517055 53.005183,5.03960139 52.6481222,14.7070952 C52.4666523,19.6200774 49.2746619,24.1626394 44.5717283,25.8527305 C39.3549563,27.7280316 34.5701064,26.8365852 30.6651703,22.8099374 C26.9550303,18.984622 26.2393409,14.4078492 28.0697184,9.43077093 C28.6497953,7.85353613 28.6454839,7.78314844 26.9546383,7.67501093 C26.015541,7.61484714 25.0776195,7.60816228 24.1483207,8.12564944" id="Fill-2"></path>
                            <path d="M8.96714001,10.2594451 C7.60348707,11.6076983 6.58462139,13.8693262 8.01327167,15.924527 C8.75406924,11.8024652 11.4086297,10.0486996 15.4677355,9.88761744 C13.9960406,8.27679601 10.7922311,8.45472052 8.96714001,10.2594451" id="Fill-3"></path>
                            <path d="M36.2190319,10.2594451 C34.855379,11.6076983 33.8365133,13.8693262 35.2651636,15.924527 C36.0059611,11.8024652 38.6605216,10.0486996 42.7196274,9.88761744 C41.2479325,8.27679601 38.0445534,8.45472052 36.2190319,10.2594451" id="Fill-4"></path>
                        </g>
                    </g>
                </g>
            </g>
        </g>
    </g>
</svg>